<svg width="180" height="180" viewBox="0 0 180 180" fill="none" xmlns="http://www.w3.org/2000/svg">
<path fill-rule="evenodd" clip-rule="evenodd" d="M90 177C138.049 177 177 138.049 177 90C177 41.9512 138.049 3 90 3C41.9512 3 3 41.9512 3 90C3 138.049 41.9512 177 90 177ZM180 90C180 139.706 139.706 180 90 180C40.2944 180 0 139.706 0 90C0 40.2944 40.2944 0 90 0C139.706 0 180 40.2944 180 90Z" fill="#FFF308" fill-opacity="0.2"/>
<path fill-rule="evenodd" clip-rule="evenodd" d="M89.5 165C131.198 165 165 131.198 165 89.5C165 47.8025 131.198 14 89.5 14C47.8025 14 14 47.8025 14 89.5C14 131.198 47.8025 165 89.5 165ZM169 89.5C169 133.407 133.407 169 89.5 169C45.5934 169 10 133.407 10 89.5C10 45.5934 45.5934 10 89.5 10C133.407 10 169 45.5934 169 89.5Z" fill="#FFF308" fill-opacity="0.6"/>
<path fill-rule="evenodd" clip-rule="evenodd" d="M89.5 157C126.779 157 157 126.779 157 89.5C157 52.2208 126.779 22 89.5 22C52.2208 22 22 52.2208 22 89.5C22 126.779 52.2208 157 89.5 157Z" fill="#FFEC65"/>
</svg>
