<svg width="161" height="160" viewBox="0 0 161 160" fill="none" xmlns="http://www.w3.org/2000/svg">
<path d="M142.381 134.958C144.864 132.398 142.465 128.334 138.907 128.609C136.749 128.776 134.568 128.861 132.366 128.861C86.1542 128.861 48.6917 91.4279 48.6917 45.252C48.6917 31.0498 52.2356 17.6746 58.488 5.96121C60.1698 2.81045 57.398 -1.01666 54.0558 0.247987C22.9024 12.036 0.75 42.1641 0.75 77.4703C0.75 123.05 37.6703 160 83.2138 160C106.424 160 127.395 150.403 142.381 134.958Z" fill="#303030" fill-opacity="0.7"/>
<path fill-rule="evenodd" clip-rule="evenodd" d="M108.438 24.7664C108.038 24.1954 107.52 23.3505 105.955 21.1586C105.987 21.1912 98.4596 11.5207 98.4596 11.5207C97.5334 10.3308 97.7678 10.1324 98.9731 11.0698C98.9731 11.0698 108.575 18.538 108.575 18.538C110.728 20.0761 111.595 20.6165 112.174 21.022C112.745 20.6217 113.59 20.1037 115.782 18.538C115.749 18.5706 125.419 11.0431 125.419 11.0431C126.609 10.1169 126.808 10.3513 125.87 11.5566C125.87 11.5566 118.402 21.1586 118.402 21.1586C116.864 23.3119 116.324 24.1786 115.918 24.7572C116.318 25.3282 116.836 26.1731 118.402 28.365C118.369 28.3324 125.897 38.0029 125.897 38.0029C126.823 39.1928 126.589 39.3912 125.383 38.4537L115.782 30.9855C113.628 29.4474 112.761 28.9071 112.183 28.5016C111.612 28.9019 110.767 29.4199 108.575 30.9855C108.608 30.9529 98.9372 38.4805 98.9372 38.4805C97.7473 39.4066 97.5489 39.1723 98.4863 37.967L105.955 28.365C107.493 26.2117 108.033 25.345 108.438 24.7664Z" fill="white"/>
<path fill-rule="evenodd" clip-rule="evenodd" d="M151.178 75.4607C151.194 75.476 147.685 70.9681 147.685 70.9681C147.25 70.4092 147.357 70.3137 147.919 70.7513L152.402 74.2375C153.407 74.9555 153.811 75.2077 154.082 75.397C154.348 75.2101 154.742 74.9683 155.766 74.2375C155.75 74.2527 160.258 70.7438 160.258 70.7438C160.817 70.3087 160.913 70.4159 160.475 70.9785L156.989 75.4607C156.271 76.4659 156.019 76.8705 155.829 77.1406C156.016 77.4071 156.258 77.8015 156.989 78.8247C156.974 78.8095 160.483 83.3173 160.483 83.3173C160.918 83.8763 160.811 83.9718 160.248 83.5342L155.766 80.048C154.76 79.33 154.356 79.0778 154.086 78.8885C153.819 79.0754 153.425 79.3172 152.402 80.048C152.417 80.0328 147.909 83.5417 147.909 83.5417C147.35 83.9768 147.255 83.8696 147.692 83.307L151.178 78.8247C151.896 77.8196 152.149 77.415 152.338 77.1449C152.151 76.8784 151.909 76.4839 151.178 75.4607Z" fill="white"/>
</svg>
