<svg width="180" height="160" viewBox="0 0 180 160" fill="none" xmlns="http://www.w3.org/2000/svg">
<path d="M174.906 19.6426C174.913 19.4293 174.917 19.2151 174.917 19C174.917 8.50659 166.496 0 156.108 0C147.868 0 140.866 5.35301 138.323 12.8044C136.496 11.8416 134.419 11.2973 132.217 11.2973C124.917 11.2973 119 17.2749 119 24.6486C119 32.0224 124.917 38 132.217 38L156.134 38H170.342C175.676 38 180 33.6317 180 28.2432C180 24.5226 177.938 21.2883 174.906 19.6426Z" fill="white"/>
<path d="M161.381 134.958C163.864 132.398 161.465 128.334 157.907 128.609C155.749 128.776 153.568 128.861 151.366 128.861C105.154 128.861 67.6917 91.4279 67.6917 45.252C67.6917 31.0498 71.2356 17.6746 77.488 5.96121C79.1698 2.81045 76.398 -1.01666 73.0558 0.247987C41.9024 12.036 19.75 42.1641 19.75 77.4703C19.75 123.05 56.6703 160 102.214 160C125.424 160 146.395 150.403 161.381 134.958Z" fill="#303030" fill-opacity="0.7"/>
<path d="M73.3195 122.599C73.3287 122.321 73.3334 122.042 73.3334 121.762C73.3334 108.086 62.2897 97 48.6667 97C37.86 97 28.6764 103.976 25.3412 113.687C22.9459 112.433 20.2222 111.723 17.3333 111.723C7.7604 111.723 0 119.514 0 129.124C0 138.733 7.7604 146.524 17.3333 146.524L48.6999 146.524H67.3333C74.3289 146.524 80 140.831 80 133.808C80 128.959 77.2962 124.744 73.3195 122.599Z" fill="white"/>
</svg>
