<svg width="180" height="187" viewBox="0 0 180 187" fill="none" xmlns="http://www.w3.org/2000/svg">
<path d="M164.969 59.1333C164.99 58.5017 165 57.8674 165 57.2307C165 26.1647 140.152 0.980713 109.5 0.980713C85.1849 0.980713 64.5218 16.8284 57.0176 38.8886C51.6283 36.0382 45.4999 34.4266 39 34.4266C17.4609 34.4266 0 52.1235 0 73.9537C0 95.7838 17.4609 113.481 39 113.481L109.5 113.481C109.525 113.481 109.55 113.481 109.575 113.481H151.5C167.24 113.481 180 100.548 180 84.5955C180 73.5804 173.917 64.0053 164.969 59.1333Z" fill="white"/>
<path fill-rule="evenodd" clip-rule="evenodd" d="M66.7021 124.499C64.0758 123.646 61.2551 125.083 60.4017 127.71L43.3651 180.143C42.5118 182.769 43.9491 185.59 46.5753 186.443C49.2016 187.297 52.0224 185.859 52.8757 183.233L69.9123 130.8C70.7656 128.174 69.3284 125.353 66.7021 124.499ZM126.882 124.499C124.256 123.646 121.435 125.083 120.581 127.71L103.545 180.143C102.691 182.769 104.129 185.59 106.755 186.443C109.381 187.297 112.202 185.859 113.055 183.233L130.092 130.8C130.945 128.174 129.508 125.353 126.882 124.499ZM80.534 127.71C81.3874 125.083 84.2081 123.646 86.8344 124.499C89.4607 125.353 90.8979 128.174 90.0446 130.8L77.1249 170.563C76.2715 173.189 73.4508 174.626 70.8245 173.773C68.1982 172.92 66.761 170.099 67.6143 167.473L80.534 127.71ZM146.765 124.499C144.139 123.646 141.318 125.083 140.465 127.71L127.545 167.473C126.692 170.099 128.129 172.92 130.755 173.773C133.381 174.626 136.202 173.189 137.056 170.563L149.975 130.8C150.829 128.174 149.391 125.353 146.765 124.499ZM40.2697 127.71C41.123 125.083 43.9438 123.646 46.5701 124.499C49.1963 125.353 50.6336 128.174 49.7803 130.8L40.9773 157.892C40.124 160.519 37.3032 161.956 34.677 161.103C32.0507 160.249 30.6134 157.429 31.4668 154.802L40.2697 127.71ZM106.965 124.499C104.339 123.646 101.518 125.083 100.665 127.71L91.8622 154.802C91.0089 157.429 92.4461 160.249 95.0724 161.103C97.6987 161.956 100.519 160.519 101.373 157.892L110.176 130.8C111.029 128.174 109.592 125.353 106.965 124.499Z" fill="#B4F5F2"/>
</svg>
