<svg width="180" height="187" viewBox="0 0 180 187" fill="none" xmlns="http://www.w3.org/2000/svg">
<path d="M164.969 59.1333C164.99 58.5017 165 57.8674 165 57.2307C165 26.1647 140.152 0.980713 109.5 0.980713C85.1849 0.980713 64.5218 16.8284 57.0176 38.8886C51.6283 36.0382 45.4999 34.4266 39 34.4266C17.4609 34.4266 0 52.1235 0 73.9537C0 95.7838 17.4609 113.481 39 113.481L109.5 113.481C109.525 113.481 109.55 113.481 109.575 113.481H151.5C167.24 113.481 180 100.548 180 84.5955C180 73.5804 173.917 64.0053 164.969 59.1333Z" fill="white"/>
<path fill-rule="evenodd" clip-rule="evenodd" d="M85.4017 127.71C86.2551 125.083 89.0758 123.646 91.7021 124.499C94.3284 125.353 95.7656 128.174 94.9123 130.8L77.8757 183.233C77.0224 185.859 74.2016 187.297 71.5753 186.443C68.9491 185.59 67.5118 182.769 68.3651 180.143L85.4017 127.71ZM105.534 127.71C106.387 125.083 109.208 123.646 111.834 124.499C114.461 125.353 115.898 128.174 115.045 130.8L102.125 170.563C101.272 173.189 98.4508 174.626 95.8245 173.773C93.1982 172.92 91.761 170.099 92.6143 167.473L105.534 127.71ZM71.5701 124.499C68.9438 123.646 66.123 125.083 65.2697 127.71L56.4668 154.802C55.6134 157.429 57.0507 160.249 59.677 161.103C62.3032 161.956 65.124 160.519 65.9773 157.892L74.7803 130.8C75.6336 128.174 74.1963 125.353 71.5701 124.499Z" fill="#B4F5F2"/>
</svg>
