<svg width="180" height="187" viewBox="0 0 180 187" fill="none" xmlns="http://www.w3.org/2000/svg">
<path fill-rule="evenodd" clip-rule="evenodd" d="M165 57.2307C165 57.8674 164.99 58.5017 164.969 59.1333C173.917 64.0053 180 73.5804 180 84.5955C180 98.4786 170.336 110.074 157.454 112.849L166.385 96.1945C167.867 93.7269 166.09 90.5857 163.211 90.5857H162.603H153.598C152.898 90.5857 152.415 89.8867 152.662 89.2326L159.85 70.1826L159.994 69.8128C161.017 67.1901 159.082 64.3598 156.267 64.3598H155.636H125.271H124.855C123.059 64.3598 121.483 65.5565 121.001 67.2863L120.925 67.5596L108.554 111.962L108.131 113.481L39 113.481C17.4609 113.481 0 95.7838 0 73.9537C0 52.1235 17.4609 34.4266 39 34.4266C45.4999 34.4266 51.6283 36.0382 57.0176 38.8886C64.5218 16.8284 85.1849 0.980713 109.5 0.980713C140.152 0.980713 165 26.1647 165 57.2307Z" fill="white"/>
<path fill-rule="evenodd" clip-rule="evenodd" d="M86.8343 124.499C84.2081 123.646 81.3873 125.083 80.534 127.71L67.6142 167.473C66.7609 170.099 68.1981 172.92 70.8244 173.773C73.4507 174.626 76.2714 173.189 77.1248 170.563L90.0445 130.8C90.8979 128.174 89.4606 125.353 86.8343 124.499ZM66.7022 124.499C64.0759 123.646 61.2552 125.083 60.4018 127.71L43.3652 180.143C42.5119 182.769 43.9492 185.59 46.5754 186.443C49.2017 187.297 52.0225 185.859 52.8758 183.233L69.9124 130.8C70.7657 128.174 69.3285 125.353 66.7022 124.499ZM40.2697 127.71C41.123 125.083 43.9438 123.646 46.5701 124.499C49.1963 125.353 50.6336 128.174 49.7803 130.8L40.9773 157.892C40.124 160.519 37.3032 161.956 34.677 161.103C32.0507 160.249 30.6134 157.429 31.4668 154.802L40.2697 127.71ZM106.965 124.499C104.339 123.646 101.518 125.083 100.665 127.71L91.8622 154.802C91.0089 157.429 92.4461 160.249 95.0724 161.103C97.6987 161.956 100.519 160.519 101.373 157.892L110.176 130.8C111.029 128.174 109.592 125.353 106.965 124.499Z" fill="#B4F5F2"/>
<path fill-rule="evenodd" clip-rule="evenodd" d="M127.73 70.2831C126.825 70.2831 126.033 70.8906 125.798 71.7645L115.288 110.911C114.947 112.182 115.904 113.43 117.219 113.43H131.329C132.522 113.43 133.45 114.468 133.316 115.654L129.541 149.058C129.291 151.271 132.3 152.175 133.311 150.191L159.572 98.6251C160.249 97.2945 159.283 95.7175 157.79 95.7175H146.256C144.837 95.7175 143.87 94.2824 144.402 92.9676L152.464 73.033C152.996 71.7182 152.028 70.2831 150.61 70.2831H127.73Z" fill="#FFF686"/>
</svg>
