<svg width="180" height="152" viewBox="0 0 180 152" fill="none" xmlns="http://www.w3.org/2000/svg">
<path fill-rule="evenodd" clip-rule="evenodd" d="M165 55.7143C165 56.3449 164.99 56.9731 164.969 57.5987C173.917 62.4243 180 71.9082 180 82.8185C180 98.6194 167.24 111.429 151.5 111.429H109.575L109.5 111.429H108.365C109.124 110.901 113.87 107.602 115.121 106.776C117.544 108.434 120.803 108.666 123.517 107.103C126.267 105.519 127.697 102.528 127.42 99.5664C129.019 98.6284 129.069 98.7241 129.069 98.7241C132.827 96.5602 134.116 91.7531 131.944 88C129.772 84.2486 124.958 82.9538 121.194 85.1212C121.194 85.1212 121.018 85.2573 119.49 86.0195C117.072 84.3923 113.839 84.1741 111.143 85.7266C108.415 87.2976 106.986 90.2549 107.234 93.1939C105.833 94.03 99.8746 97.6466 99.8746 97.6466C99.8746 97.6466 99.8906 89.9434 99.958 88.8865C102.574 87.6094 104.374 84.9298 104.374 81.8293C104.374 78.6919 102.526 75.9824 99.8566 74.7246C99.8955 73.3476 99.8746 72.8453 99.8746 72.8453C99.8746 68.5175 96.3453 65 92 65C87.6567 65 84.1254 68.5105 84.1254 72.8453C84.1254 72.8453 84.1448 73.0108 84.1323 74.7287C81.4677 75.9877 79.6256 78.6932 79.6256 81.8293C79.6256 84.977 81.4859 87.694 84.1699 88.9464C84.0965 91.0089 84.1254 97.6466 84.1254 97.6466C84.1254 97.6466 78.2514 94.1881 76.7718 93.1407C76.9992 90.2192 75.5714 87.2895 72.8571 85.7266C70.1516 84.1687 66.901 84.3962 64.479 86.0421C62.95 85.2728 62.8061 85.1212 62.8061 85.1212C59.0481 82.9573 54.229 84.2469 52.0564 88C49.8847 91.7514 51.1673 96.5567 54.9314 98.7241C54.9314 98.7241 55.2887 98.7232 56.5738 99.6182C56.3178 102.563 57.7466 105.527 60.4827 107.103C63.2088 108.672 66.4882 108.43 68.9159 106.749C69.6612 107.35 75.7088 110.881 76.6491 111.429L39 111.429C17.4609 111.429 0 93.9002 0 72.278C0 50.6557 17.4609 33.1274 39 33.1274C45.4999 33.1274 51.6283 34.7236 57.0176 37.5468C64.5218 15.6968 85.1849 0 109.5 0C140.152 0 165 24.9441 165 55.7143Z" fill="white"/>
<path fill-rule="evenodd" clip-rule="evenodd" d="M88.731 135.869V85.9171H87.6449C85.8373 85.9171 84.372 84.4549 84.372 82.6593C84.372 80.8601 85.8348 79.4016 87.6449 79.4016H88.731V73.964C88.731 72.1693 90.1983 70.7144 92.0002 70.7144C93.8057 70.7144 95.2694 72.1777 95.2694 73.964V79.4016H96.3555C98.163 79.4016 99.6284 80.8638 99.6284 82.6593C99.6284 84.4585 98.1655 85.9171 96.3555 85.9171H95.2694V135.869H96.3555C98.163 135.869 99.6284 137.331 99.6284 139.127C99.6284 140.926 98.1655 142.384 96.3555 142.384H95.2694V147.822C95.2694 149.617 93.802 151.071 92.0002 151.071C90.1946 151.071 88.731 149.608 88.731 147.822V142.384H87.6449C85.8373 142.384 84.372 140.922 84.372 139.127C84.372 137.327 85.8348 135.869 87.6449 135.869H88.731Z" fill="white"/>
<path fill-rule="evenodd" clip-rule="evenodd" d="M71.9287 95.5837L115.341 120.56L115.884 119.622C116.788 118.062 118.791 117.529 120.352 118.427C121.915 119.326 122.451 121.318 121.546 122.88L121.003 123.817L125.729 126.536C127.289 127.433 127.82 129.427 126.919 130.982C126.016 132.54 124.012 133.072 122.46 132.179L117.734 129.46L117.191 130.397C116.287 131.957 114.284 132.49 112.723 131.593C111.16 130.693 110.624 128.701 111.529 127.139L112.072 126.202L68.6595 101.226L68.1165 102.164C67.2127 103.723 65.2093 104.257 63.6488 103.359C62.0852 102.459 61.549 100.468 62.454 98.9058L62.9971 97.9685L58.2713 95.2497C56.7115 94.3523 56.1808 92.3586 57.0817 90.8036C57.9845 89.2455 59.9881 88.714 61.5405 89.6072L66.2663 92.326L66.8093 91.3887C67.7131 89.8288 69.7165 89.2954 71.277 90.1931C72.8406 91.0927 73.3768 93.0844 72.4718 94.6464L71.9287 95.5837Z" fill="white"/>
<path fill-rule="evenodd" clip-rule="evenodd" d="M115.341 101.226L71.9287 126.202L72.4717 127.139C73.3755 128.699 72.8374 130.695 71.2769 131.593C69.7133 132.492 67.7143 131.959 66.8093 130.397L66.2662 129.46L61.5405 132.179C59.9807 133.076 57.9826 132.537 57.0817 130.982C56.1789 129.424 56.7188 127.429 58.2712 126.536L62.997 123.817L62.454 122.88C61.5502 121.32 62.0883 119.325 63.6487 118.427C65.2124 117.527 67.2114 118.06 68.1164 119.622L68.6595 120.56L112.072 95.5837L111.529 94.6465C110.625 93.0866 111.163 91.091 112.723 90.1932C114.287 89.2936 116.286 89.8267 117.191 91.3887L117.734 92.326L122.46 89.6072C124.02 88.7098 126.018 89.2487 126.919 90.8037C127.821 92.3618 127.281 94.3566 125.729 95.2497L121.003 97.9686L121.546 98.9058C122.45 100.466 121.912 102.461 120.352 103.359C118.788 104.259 116.789 103.726 115.884 102.164L115.341 101.226Z" fill="white"/>
</svg>
